<?xml version="1.0" encoding="utf-8"?>
<!-- Generator: Adobe Illustrator 19.2.1, SVG Export Plug-In . SVG Version: 6.00 Build 0)  -->
<svg version="1.1" id="Слой_1" xmlns="http://www.w3.org/2000/svg" xmlns:xlink="http://www.w3.org/1999/xlink" x="0px" y="0px"
	 viewBox="0 0 32 32" style="enable-background:new 0 0 32 32;" xml:space="preserve">
<style type="text/css">
	.st0{fill:#C9C9C9;}
</style>
<g id="List">
	<path class="st0" d="M12,7l19,0c0.6,0,1-0.4,1-1s-0.4-1-1-1L12,5c-0.6,0-1,0.4-1,1S11.4,7,12,7z"/>
	<path class="st0" d="M31,15l-19,0c-0.6,0-1,0.4-1,1s0.4,1,1,1l19,0c0.6,0,1-0.4,1-1S31.6,15,31,15z"/>
	<path class="st0" d="M31,25l-19,0c-0.6,0-1,0.4-1,1s0.4,1,1,1l19,0c0.6,0,1-0.4,1-1S31.6,25,31,25z"/>
	<path class="st0" d="M4,2C1.8,2,0,3.8,0,6s1.8,4,4,4s4-1.8,4-4S6.2,2,4,2z M4,8C2.9,8,2,7.1,2,6s0.9-2,2-2s2,0.9,2,2S5.1,8,4,8z"/>
	<path class="st0" d="M4,12c-2.2,0-4,1.8-4,4s1.8,4,4,4s4-1.8,4-4S6.2,12,4,12z M4,18c-1.1,0-2-0.9-2-2s0.9-2,2-2s2,0.9,2,2
		S5.1,18,4,18z"/>
	<path class="st0" d="M4,22c-2.2,0-4,1.8-4,4s1.8,4,4,4s4-1.8,4-4S6.2,22,4,22z M4,28c-1.1,0-2-0.9-2-2s0.9-2,2-2s2,0.9,2,2
		S5.1,28,4,28z"/>
</g>
</svg>
