<?xml version="1.0" encoding="utf-8"?>
<!-- Generator: Adobe Illustrator 15.1.0, SVG Export Plug-In . SVG Version: 6.00 Build 0)  -->
<!DOCTYPE svg PUBLIC "-//W3C//DTD SVG 1.1//EN" "http://www.w3.org/Graphics/SVG/1.1/DTD/svg11.dtd">
<svg version="1.1" id="Слой_1" xmlns="http://www.w3.org/2000/svg" xmlns:xlink="http://www.w3.org/1999/xlink" x="0px" y="0px"
	 width="800px" height="800px" viewBox="0 0 800 800" enable-background="new 0 0 800 800" xml:space="preserve">
<g id="List">
	<path fill="#445566" d="M300,175h475c15,0,25-10,25-25s-10-25-25-25H300c-15,0-25,10-25,25S285,175,300,175z"/>
	<path fill="#445566" d="M775,375H300c-15,0-25,10-25,25s10,25,25,25h475c15,0,25-10,25-25S790,375,775,375z"/>
	<path fill="#445566" d="M775,625H300c-15,0-25,10-25,25s10,25,25,25h475c15,0,25-10,25-25S790,625,775,625z"/>
	<path fill="#445566" d="M100,50C45,50,0,95,0,150s45,100,100,100s100-45,100-100S155,50,100,50z M100,200c-27.5,0-50-22.5-50-50
		s22.5-50,50-50s50,22.5,50,50S127.5,200,100,200z"/>
	<path fill="#445566" d="M100,300C45,300,0,345,0,400s45,100,100,100s100-45,100-100S155,300,100,300z M100,450
		c-27.5,0-50-22.5-50-50s22.5-50,50-50s50,22.5,50,50S127.5,450,100,450z"/>
	<path fill="#445566" d="M100,550C45,550,0,595,0,650s45,100,100,100s100-45,100-100S155,550,100,550z M100,700
		c-27.5,0-50-22.5-50-50s22.5-50,50-50s50,22.5,50,50S127.5,700,100,700z"/>
</g>
</svg>
