<?xml version="1.0" encoding="utf-8"?>
<!-- Generator: Adobe Illustrator 15.1.0, SVG Export Plug-In . SVG Version: 6.00 Build 0)  -->
<!DOCTYPE svg PUBLIC "-//W3C//DTD SVG 1.1//EN" "http://www.w3.org/Graphics/SVG/1.1/DTD/svg11.dtd">
<svg version="1.1" id="Layer_1" xmlns="http://www.w3.org/2000/svg" xmlns:xlink="http://www.w3.org/1999/xlink" x="0px" y="0px"
	 width="800px" height="800px" viewBox="0 0 800 800" enable-background="new 0 0 800 800" xml:space="preserve">
<g>
	<path fill="#FFFFFF" d="M290.156,199.062c15.938-0.312,42.812,9.844,69.219,20.625c43.281,17.344,50,18.125,93.281,0.312
		c25.625-10.469,51.719-19.062,79.375-21.875c42.5-4.375,81.562,5.625,117.969,27.5c17.969,10.938,33.906,24.062,46.719,40.781
		c4.375,5.625,4.531,8.75-2.031,13.125c-72.656,47.812-98.75,143.281-60.938,222.344c17.656,36.875,45.625,63.594,82.188,81.25
		c5.781,2.812,6.719,5.312,4.531,11.25c-18.438,51.25-44.531,97.969-79.062,140c-8.281,10-16.719,19.844-26.094,29.062
		C586.875,791.719,553.75,800.312,515,789.844c-16.875-4.531-32.656-12.031-49.062-17.656c-44.062-15.312-86.094-7.188-127.5,10.469
		c-15,6.406-30.469,10.469-46.562,12.188c-23.281,2.5-43.594-5.469-61.094-20.469c-34.844-29.688-61.719-65.938-84.531-105.469
		c-24.688-42.656-41.875-88.281-53.281-136.094c-10.781-45.156-15.312-90.781-10.156-137.031
		c4.688-42.656,17.656-82.656,43.281-117.344C163.281,228.125,213.125,200.469,290.156,199.062z"/>
	<path fill="#FFFFFF" d="M399.844,172.5c2.188-56.875,28.75-100.312,73.906-133.281c23.281-17.188,49.688-26.875,77.969-32.031
		c6.094-1.094,7.656,0.625,7.656,6.562c0.469,65-26.406,116.25-78.281,154.062c-20.938,15.312-45.781,21.875-72.031,21.562
		c-7.031,0-10.156-1.875-9.219-9.219C400.156,177.656,399.844,175,399.844,172.5z"/>
</g>
</svg>
