<?xml version="1.0" encoding="utf-8"?>
<!-- Generator: Adobe Illustrator 15.1.0, SVG Export Plug-In . SVG Version: 6.00 Build 0)  -->
<!DOCTYPE svg PUBLIC "-//W3C//DTD SVG 1.1//EN" "http://www.w3.org/Graphics/SVG/1.1/DTD/svg11.dtd">
<svg version="1.1" id="_x32_" xmlns="http://www.w3.org/2000/svg" xmlns:xlink="http://www.w3.org/1999/xlink" x="0px" y="0px"
	 width="800px" height="800px" viewBox="0 0 800 800" enable-background="new 0 0 800 800" xml:space="preserve">
<g>
	<path fill="#445566" d="M653.832,604.527c-30.373,30.881-66.006,53.92-106.922,69.095s-86.078,22.774-135.486,22.774
		c-44.27,0-84.534-7.081-120.817-21.23c-36.284-14.149-67.297-33.836-93.026-59.059c-25.741-25.21-45.681-55.451-59.83-90.709
		c-14.161-35.247-21.23-73.727-21.23-115.414c0-41.17,7.721-79.251,23.16-114.256c15.44-34.993,36.538-65.354,63.305-91.096
		c26.754-25.729,58.021-45.934,93.798-60.602c35.765-14.668,73.979-22.002,114.642-22.002c34.993,0,68.962,5.151,101.904,15.44
		c32.931,10.302,62.146,25.742,87.622,46.32c25.476,20.591,45.801,46.32,60.987,77.2c15.175,30.88,22.774,67.164,22.774,108.852
		c0,30.881-4.125,58.166-12.352,81.832c-8.239,23.679-19.18,43.498-32.811,59.444c-13.643,15.958-29.469,27.925-47.478,35.897
		c-18.021,7.986-37.057,11.967-57.128,11.967c-23.16,0-40.145-5.658-50.952-16.984c-10.809-11.314-16.212-24.438-16.212-39.372
		h-3.088c-2.582,5.669-6.695,11.713-12.353,18.142c-5.669,6.441-12.617,12.484-20.844,18.143
		c-8.238,5.669-17.636,10.422-28.178,14.281c-10.555,3.86-22.268,5.791-35.126,5.791c-17.503,0-33.196-3.209-47.093-9.65
		c-13.896-6.43-25.608-15.175-35.126-26.248c-9.529-11.062-16.863-24.438-22.002-40.145c-5.15-15.693-7.72-32.81-7.72-51.338
		c0-21.615,3.595-42.846,10.808-63.689c7.202-20.844,17.37-39.372,30.494-55.584c13.124-16.212,29.204-29.204,48.25-38.986
		c19.035-9.771,40.397-14.668,64.076-14.668c19.554,0,36.404,4.512,50.566,13.51c14.149,9.011,24.053,19.951,29.722,32.81h3.088
		l7.72-34.74h47.864l-30.88,143.592c-1.037,3.607-1.93,8.106-2.702,13.51c-0.771,5.404-1.677,11.074-2.702,16.984
		c-1.037,5.923-1.809,11.713-2.315,17.37c-0.519,5.669-0.772,10.302-0.772,13.896c0,4.633,0.386,9.145,1.158,13.51
		c0.772,4.379,2.569,8.492,5.404,12.353c2.822,3.86,6.683,6.948,11.58,9.265c4.885,2.315,11.447,3.474,19.686,3.474
		c12.858,0,24.571-3.595,35.126-10.808c10.543-7.201,19.554-16.984,27.021-29.336c7.454-12.353,13.244-27.021,17.37-44.004
		c4.113-16.984,6.176-35.247,6.176-54.812c0-33.449-5.537-62.918-16.599-88.394c-11.073-25.476-26.513-46.959-46.319-64.462
		c-19.819-17.491-43.232-30.615-70.252-39.372c-27.021-8.746-56.742-13.124-89.166-13.124c-35.513,0-67.683,6.176-96.5,18.528
		c-28.83,12.352-53.654,29.336-74.498,50.952c-20.845,21.616-36.936,47.225-48.25,76.814
		c-11.327,29.601-16.984,61.639-16.984,96.114c0,36.55,5.911,69.479,17.756,98.816c11.834,29.336,28.432,54.306,49.794,74.884
		c21.351,20.591,46.827,36.416,76.429,47.479c29.589,11.072,62.398,16.598,98.43,16.598c45.801,0,85.427-7.068,118.888-21.23
		c33.449-14.148,63.304-34.088,89.552-59.83L653.832,604.527z M407.25,304.992c-15.512,0-29.095,3.993-40.723,11.966
		c-11.641,7.985-21.592,18.142-29.867,30.494c-8.274,12.352-14.486,26.248-18.624,41.688s-6.2,30.626-6.2,45.547
		c0,7.214,0.904,15.44,2.714,24.705c1.81,9.264,5.042,18.021,9.698,26.248c4.656,8.238,10.989,15.053,18.999,20.457
		c8.009,5.404,18.227,8.106,30.65,8.106c17.575,0,32.569-4.366,44.981-13.124c12.412-8.746,22.496-19.686,30.265-32.811
		c7.756-13.123,13.449-27.141,17.068-42.074c3.619-14.92,5.428-28.816,5.428-41.688c0-9.771-1.037-19.42-3.1-28.95
		c-2.075-9.518-5.561-18.009-10.471-25.476c-4.921-7.455-11.507-13.51-19.782-18.142
		C430.013,307.308,419.663,304.992,407.25,304.992z"/>
</g>
</svg>
