<?xml version="1.0" encoding="utf-8"?>
<!-- Generator: Adobe Illustrator 15.1.0, SVG Export Plug-In . SVG Version: 6.00 Build 0)  -->
<!DOCTYPE svg PUBLIC "-//W3C//DTD SVG 1.1//EN" "http://www.w3.org/Graphics/SVG/1.1/DTD/svg11.dtd">
<svg version="1.1" id="レイヤー_1" xmlns:sketch="http://www.bohemiancoding.com/sketch/ns"
	 xmlns="http://www.w3.org/2000/svg" xmlns:xlink="http://www.w3.org/1999/xlink" x="0px" y="0px" width="32px" height="32px"
	 viewBox="0 0 32 32" enable-background="new 0 0 32 32" xml:space="preserve">
<title></title>
<desc></desc>
<g id="Page-1">
	<g id="icon-111-search">
		<path id="search" fill="#445566" d="M19.428,21.428C18.037,22.418,16.336,23,14.5,23C9.806,23,6,19.194,6,14.5S9.806,6,14.5,6
			S23,9.806,23,14.5c0,1.837-0.582,3.537-1.572,4.928l5.584,5.584c0.551,0.551,0.546,1.431,0,1.977l-0.023,0.023
			c-0.545,0.545-1.431,0.546-1.977,0L19.428,21.428L19.428,21.428z M14.5,21c3.59,0,6.5-2.91,6.5-6.5S18.09,8,14.5,8S8,10.91,8,14.5
			S10.91,21,14.5,21L14.5,21z"/>
	</g>
</g>
</svg>
