<?xml version="1.0" encoding="utf-8"?>
<!-- Generator: Adobe Illustrator 15.1.0, SVG Export Plug-In . SVG Version: 6.00 Build 0)  -->
<!DOCTYPE svg PUBLIC "-//W3C//DTD SVG 1.1//EN" "http://www.w3.org/Graphics/SVG/1.1/DTD/svg11.dtd">
<svg version="1.1" id="Layer_1" xmlns="http://www.w3.org/2000/svg" xmlns:xlink="http://www.w3.org/1999/xlink" x="0px" y="0px"
	 width="800px" height="800px" viewBox="0 0 800 800" enable-background="new 0 0 800 800" xml:space="preserve">
<g>
	<path fill="#FFFFFF" d="M773.906,208.906c0,55.469-0.156,110.938,0.156,166.25c0,7.5-1.875,10.625-9.375,9.688
		c-1.25-0.156-2.656,0-3.906,0c-96.25,0.469-192.5,0.938-288.906,1.562c-31.406,0.156-62.969,0.469-94.375,1.094
		c-7.656,0.156-10.312-2.031-10.312-10.156c0.312-92.656,0.312-185.312,0-277.969c0-7.969,1.719-11.25,10.469-12.188
		c35.156-4.219,70-9.219,105-14.062c48.438-6.875,96.719-14.062,145-20.938c46.094-6.562,92.188-12.656,138.281-19.219
		c7.344-1.094,8.125,2.031,8.125,8.125C773.906,96.875,773.906,152.969,773.906,208.906z"/>
	<path fill="#FFFFFF" d="M332.969,241.25c0,45.781,0,91.719,0,137.5c0,10,0,10-10.312,10c-19.062,0.156-37.969,0.156-57.031,0.312
		c-76.25,0.469-152.5,0.938-228.75,1.562c-11.094,0-11.094,0.156-11.094-10.781c0-77.812,0-155.625,0-233.594
		c0-10.781,0.156-10.312,10.781-11.875c27.5-3.75,55-7.969,82.5-11.875c21.094-2.969,42.344-5.469,63.438-8.281
		c42.5-5.781,85-11.875,127.344-17.812c6.094-0.938,12.188-2.656,18.438-2.656c3.281,0,4.844,1.094,4.688,4.531
		c-0.156,2.656,0,5.156,0,7.812C332.969,151.094,332.969,196.094,332.969,241.25z M328.125,240.312
		c0-44.688-0.156-89.531,0.156-134.219c0-6.562-2.344-7.969-8.125-7.656c-4.844,0.312-8.594,3.125-13.438,3.438
		c-10.312,0.625-20.469,2.5-30.781,3.906c-20.156,2.812-40.469,5.312-60.469,8.438c-12.188,1.875-24.844,1.719-36.562,6.562
		c-2.031,0.781-4.062,1.406-6.094,0.625c-6.562-2.656-13.281-0.312-19.062,1.094c-14.688,3.75-29.844,4.688-44.844,6.719
		c-12.5,1.719-25,4.219-37.656,4.688c-10.625,0.312-20.156,5.781-31.094,5.312c-9.375-0.469-10.625,1.25-10.625,10.938
		c0,75,0,149.844,0,224.844c0,10.156,1.094,10.938,11.25,11.094c49.844,0.781,99.844-2.344,149.688-1.719
		c41.562,0.469,83.281,0.156,124.844,0c12.031,0,12.656-0.469,12.656-12.969C328.125,327.656,328.125,284.062,328.125,240.312z"/>
	<path fill="#FFFFFF" d="M332.969,570.781c0,46.094-0.156,92.188,0.156,138.281c0,7.031-1.406,9.531-8.906,8.281
		c-22.5-3.594-45.156-6.719-67.812-9.844c-23.438-3.281-46.875-5.938-70.312-9.375c-33.125-4.688-66.25-9.844-99.531-14.531
		c-17.5-2.5-35-5-52.5-6.875c-6.25-0.625-8.438-2.656-8.438-9.062c0.156-79.375,0.156-158.75,0-238.281
		c0-6.719,1.719-9.844,8.906-8.594c3.281,0.469,6.719,0.156,10.156,0.156c93.438,0.469,186.875,1.094,280.312,1.406
		c6.719,0,8.281,2.188,8.125,8.438C332.812,477.5,332.969,524.062,332.969,570.781z M328.125,570.938
		c0-43.75-0.312-87.5,0.156-131.094c0.156-11.406-5-13.125-13.438-13.125c-12.812,0-25.469,0.625-38.438,0.312
		c-57.188-1.562-114.375,1.094-171.562-1.719c-21.562-1.094-43.125-0.156-64.844-0.156c-9.531,0-10.625,1.25-10.625,10.938
		c0,75.156,0,150.469,0,225.625c0,10.156,1.562,11.094,11.562,12.031c15.469,1.406,30.938,2.656,46.094,5.625
		c19.062,3.594,38.281,5.625,57.5,8.281c10,1.406,20.312,1.719,29.844,4.062c13.594,3.125,27.344,4.062,40.938,6.25
		c14.844,2.5,30.156,4.375,45.312,5.938c19.375,2.188,38.906,4.375,58.125,8.594c6.25,1.406,9.219-0.469,9.219-7.969
		C327.969,659.844,328.125,615.312,328.125,570.938z"/>
	<path fill="#FFFFFF" d="M774.531,602.656c0,55.156,0,110.312,0,165.625c0,12.031,0,12.188-12.344,10.469
		c-29.375-4.219-58.594-8.594-87.969-12.656c-40.469-5.625-80.938-10.938-121.25-16.719c-38.281-5.312-76.719-10.781-115-16.562
		c-21.25-3.281-42.812-5-64.062-8.906c-6.719-1.25-6.875-4.219-6.875-9.219c0-50.781,0-101.562,0-152.344
		c0-43.281,0-86.406,0-129.688c0-9.531,0.312-10.156,10.312-10c129.844,2.188,259.688,2.188,389.531,2.812
		c6.562,0,7.656,2.656,7.656,8.281C774.531,490.156,774.531,546.406,774.531,602.656L774.531,602.656z M771.875,601.094
		c0-42.656,0-85.469,0-128.125c0-12.188,0-24.531,0-36.719c0-3.125,0.625-6.406-4.219-6.719c-5.469-0.312-10.781-1.25-16.25-1.406
		c-54.375-0.938-108.75,0-163.125-1.25c-68.906-1.562-137.969-0.469-207.031-0.469c-10.938,0-10.938,0-10.938,10.625
		c0,86.406,0,172.812,0,259.375c0,6.25,0.156,12.5,0,18.75c-0.156,4.688,1.875,6.25,6.562,6.562
		c7.5,0.469,14.844,2.188,22.344,2.344c12.969,0.312,25.312,4.844,38.438,5.469c12.656,0.625,25.156,2.344,37.656,3.906
		c14.844,2.031,29.531,6.25,44.375,6.406c16.719,0.156,32.656,5.312,49.219,6.25c15.469,0.938,30.625,4.531,45.938,6.719
		c18.125,2.5,36.406,4.375,54.531,7.344c14.062,2.344,28.125,3.438,42.188,5.312c14.688,2.031,29.062,5.469,43.906,4.688
		c1.094,0,2.344,1.094,3.438,1.562c9.062,3.906,12.969,1.406,12.969-8.594C771.875,709.375,771.875,655.312,771.875,601.094z"/>
	<path fill="#FFFFFF" d="M328.125,240.312c0,43.75,0,87.5,0,131.094c0,12.5-0.469,12.969-12.656,12.969
		c-41.562,0-83.281,0.469-124.844,0c-50-0.625-99.844,2.344-149.688,1.719C30.781,385.938,29.688,385,29.688,375
		c0-75,0-149.844,0-224.844c0-9.688,1.25-11.406,10.625-10.938c10.781,0.625,20.469-5,31.094-5.312
		c12.656-0.312,25.156-2.969,37.656-4.688c14.844-2.031,30-2.812,44.844-6.719c5.781-1.562,12.5-3.75,19.062-1.094
		c2.031,0.781,4.062,0.156,6.094-0.625c11.719-4.844,24.375-4.688,36.562-6.562c20.156-3.125,40.312-5.781,60.469-8.438
		c10.156-1.406,20.469-3.281,30.781-3.906c4.844-0.312,8.75-3.125,13.438-3.438c5.938-0.312,8.125,1.25,8.125,7.656
		C328.125,150.781,328.125,195.469,328.125,240.312z"/>
	<path fill="#FFFFFF" d="M328.125,570.938c0,44.531-0.156,89.062,0.156,133.438c0,7.5-2.969,9.375-9.219,7.969
		c-19.219-4.219-38.75-6.562-58.125-8.594c-15.156-1.719-30.469-3.594-45.312-5.938c-13.594-2.188-27.344-3.125-40.938-6.25
		c-9.531-2.188-19.844-2.656-29.844-4.062c-19.219-2.656-38.438-4.688-57.5-8.281C72.188,676.25,56.719,675,41.25,673.594
		c-10.156-0.938-11.562-1.719-11.562-12.031c0-75.156,0-150.469,0-225.625c0-9.844,1.094-10.938,10.625-10.938
		c21.562,0,43.281-0.938,64.844,0.156c57.188,2.812,114.375,0,171.562,1.719c12.812,0.312,25.625-0.156,38.438-0.312
		c8.438,0,13.594,1.719,13.438,13.125C327.812,483.438,328.125,527.188,328.125,570.938z"/>
	<path fill="#FFFFFF" d="M771.875,601.094c0,54.219,0,108.281,0,162.5c0,10-3.906,12.5-12.969,8.594
		c-1.25-0.469-2.344-1.562-3.438-1.562c-14.844,0.781-29.375-2.656-43.906-4.688c-14.062-1.875-28.125-2.969-42.188-5.312
		c-18.125-3.125-36.406-4.844-54.531-7.344c-15.312-2.188-30.625-5.781-45.938-6.719c-16.562-1.094-32.344-6.094-49.219-6.25
		c-14.844-0.156-29.531-4.375-44.375-6.406c-12.5-1.719-25.156-3.281-37.656-3.906c-12.969-0.625-25.312-5.156-38.438-5.469
		c-7.5-0.156-14.844-1.875-22.344-2.344c-4.531-0.312-6.562-2.031-6.562-6.562c0.156-6.25,0-12.5,0-18.75
		c0-86.406,0-172.812,0-259.375c0-10.625,0-10.625,10.938-10.625c69.062,0,137.969-1.094,207.031,0.469
		c54.375,1.25,108.75,0.312,163.125,1.25c5.469,0.156,10.781,1.094,16.25,1.406c4.844,0.156,4.219,3.594,4.219,6.719
		c0,12.188,0,24.531,0,36.719C771.875,515.781,771.875,558.438,771.875,601.094z"/>
</g>
</svg>
